<svg viewBox="0 0 512 512" xmlns="http://www.w3.org/2000/svg"><style>@media(prefers-color-scheme:dark){.a{fill:#fff}}</style><path class="a" fill-rule="evenodd" clip-rule="evenodd" d="M74.904 75.058C28.622 121.378 0 185.347 0 256s28.622 134.622 74.904 180.942l.077.077C121.308 483.346 185.308 512 256 512c70.653 0 134.622-28.622 180.942-74.904l.154-.154C483.378 390.622 512 326.653 512 256c0-70.692-28.654-134.692-74.981-181.02C390.692 28.655 326.692 0 256 0 185.347 0 121.378 28.622 75.058 74.904l-.154.154zm1.55 7.611c-1.55 3.043-1.55 7.025-1.55 14.99v316.682c0 7.965 0 11.948 1.55 14.99a14.22 14.22 0 0 0 6.215 6.215c3.043 1.55 7.025 1.55 14.99 1.55h316.682c7.965 0 11.948 0 14.99-1.55a14.216 14.216 0 0 0 6.215-6.215c1.55-3.042 1.55-7.025 1.55-14.99V97.659c0-7.965 0-11.948-1.55-14.99a14.22 14.22 0 0 0-6.215-6.215c-3.042-1.55-7.025-1.55-14.99-1.55H97.659c-7.965 0-11.948 0-14.99 1.55a14.223 14.223 0 0 0-6.215 6.215z" fill="#000" /></svg>
