<svg viewBox="0 0 16 16" xmlns="http://www.w3.org/2000/svg"><path fill-rule="evenodd" clip-rule="evenodd" d="M2.34 2.346A7.975 7.975 0 0 0 0 8c0 2.208.894 4.207 2.34 5.654l.003.003A7.975 7.975 0 0 0 8 16a7.975 7.975 0 0 0 5.654-2.34l.005-.006A7.975 7.975 0 0 0 16 8c0-2.21-.895-4.21-2.343-5.657A7.975 7.975 0 0 0 8 0a7.975 7.975 0 0 0-5.654 2.34l-.005.006zm.05.237c-.05.095-.05.22-.05.469v9.896c0 .25 0 .373.05.469.042.083.11.151.193.194.095.048.22.048.469.048h9.896c.25 0 .373 0 .469-.048a.444.444 0 0 0 .194-.194c.048-.095.048-.22.048-.469V3.052c0-.25 0-.374-.048-.469a.444.444 0 0 0-.194-.194c-.095-.048-.22-.048-.469-.048H3.052c-.25 0-.374 0-.469.048a.444.444 0 0 0-.194.194z"/></svg>